<svg xmlns="http://www.w3.org/2000/svg" width="13" height="13" fill="none"><path fill="#fff" d="M2.875 12.606a3 3 0 0 1-1.46-.355 2.7 2.7 0 0 1-1.034-.971Q0 10.658 0 9.839t.38-1.441a2.7 2.7 0 0 1 1.036-.971 3 3 0 0 1 1.46-.356h6.607a3 3 0 0 1 1.454.356q.653.349 1.035.971.387.622.387 1.44 0 .82-.387 1.442a2.66 2.66 0 0 1-1.035.971 3 3 0 0 1-1.454.355zm6.773-1.25q.413 0 .756-.21.342-.203.546-.552.21-.348.216-.774 0-.413-.204-.75a1.5 1.5 0 0 0-.552-.545 1.47 1.47 0 0 0-.762-.203q-.419 0-.761.203-.343.202-.546.546a1.47 1.47 0 0 0-.203.762q0 .419.203.761.203.343.546.546.342.21.761.216M3.136 6.1a3.3 3.3 0 0 1-1.6-.38A2.87 2.87 0 0 1 .413 4.652Q0 3.96 0 3.053q0-.914.413-1.6Q.826.764 1.536.382A3.3 3.3 0 0 1 3.136 0h6.087q.89 0 1.6.38.71.382 1.123 1.074.413.685.413 1.6 0 .907-.413 1.599-.413.685-1.123 1.066a3.3 3.3 0 0 1-1.6.381zm0-1.276h6.087q.509 0 .927-.222.425-.229.68-.628a1.7 1.7 0 0 0 .253-.92 1.66 1.66 0 0 0-.254-.921 1.75 1.75 0 0 0-.68-.622 1.9 1.9 0 0 0-.926-.229H3.136q-.508 0-.933.229-.42.222-.673.622a1.66 1.66 0 0 0-.254.92q0 .52.254.92t.673.63q.424.22.933.221m0-.412q-.381 0-.692-.184a1.36 1.36 0 0 1-.667-1.18 1.36 1.36 0 0 1 .667-1.182q.31-.184.692-.184.38 0 .692.184.31.178.495.489.184.305.177.686.001.38-.184.691a1.44 1.44 0 0 1-.495.502 1.26 1.26 0 0 1-.685.178"/><path fill="#fff" fill-opacity=".2" d="M2.875 12.606a3 3 0 0 1-1.46-.355 2.7 2.7 0 0 1-1.034-.971Q0 10.658 0 9.839t.38-1.441a2.7 2.7 0 0 1 1.036-.971 3 3 0 0 1 1.46-.356h6.607a3 3 0 0 1 1.454.356q.653.349 1.035.971.387.622.387 1.44 0 .82-.387 1.442a2.66 2.66 0 0 1-1.035.971 3 3 0 0 1-1.454.355zm6.773-1.25q.413 0 .756-.21.342-.203.546-.552.21-.348.216-.774 0-.413-.204-.75a1.5 1.5 0 0 0-.552-.545 1.47 1.47 0 0 0-.762-.203q-.419 0-.761.203-.343.202-.546.546a1.47 1.47 0 0 0-.203.762q0 .419.203.761.203.343.546.546.342.21.761.216M3.136 6.1a3.3 3.3 0 0 1-1.6-.38A2.87 2.87 0 0 1 .413 4.652Q0 3.96 0 3.053q0-.914.413-1.6Q.826.764 1.536.382A3.3 3.3 0 0 1 3.136 0h6.087q.89 0 1.6.38.71.382 1.123 1.074.413.685.413 1.6 0 .907-.413 1.599-.413.685-1.123 1.066a3.3 3.3 0 0 1-1.6.381zm0-1.276h6.087q.509 0 .927-.222.425-.229.68-.628a1.7 1.7 0 0 0 .253-.92 1.66 1.66 0 0 0-.254-.921 1.75 1.75 0 0 0-.68-.622 1.9 1.9 0 0 0-.926-.229H3.136q-.508 0-.933.229-.42.222-.673.622a1.66 1.66 0 0 0-.254.92q0 .52.254.92t.673.63q.424.22.933.221m0-.412q-.381 0-.692-.184a1.36 1.36 0 0 1-.667-1.18 1.36 1.36 0 0 1 .667-1.182q.31-.184.692-.184.38 0 .692.184.31.178.495.489.184.305.177.686.001.38-.184.691a1.44 1.44 0 0 1-.495.502 1.26 1.26 0 0 1-.685.178"/></svg>